<?xml version="1.0" encoding="UTF-8"?>
<svg width="1281px" height="769px" viewBox="0 0 1281 769" version="1.1" xmlns="http://www.w3.org/2000/svg" xmlns:xlink="http://www.w3.org/1999/xlink">
    <title>Group 41</title>
    <g id="Page-1" stroke="none" stroke-width="1" fill="none" fill-rule="evenodd">
        <g id="Group-41" fill="#000000" fill-opacity="0.08" fill-rule="nonzero">
            <path d="M132.29,708.29 C169.94,688.71 199.56,654.88 213.55,615.45 C216.62,606.79 219,597.75 221.31,589.01 C224.63,576.4 228.06,563.36 233.62,551.33 C245.62,525.39 267.55,504.24 286.9,485.59 C295.71,477.1 303.83,468.52 306.4,457.04 C307.4,452.51 308.06,447.83 308.68,443.3 C309.68,436.3 310.63,429.06 313.03,422.3 C318.44,407.14 330.83,395.06 342.23,385.24 C344.29,383.46 346.39,381.7 348.48,379.93 C358.59,371.41 369.05,362.6 376.66,351.68 C383.26,342.22 387.59,331.36 391.77,320.87 C394.45,314.14 397.22,307.19 400.56,300.67 C409.778587,282.761346 423.424307,267.50802 440.2,256.36 C461,242.53 475,219.06 478.54,192 C479.85,182 479.54,171.72 479.19,161.8 C478.97,155.21 478.75,148.41 479.01,141.74 C479.65,125.49 490.22,91.93 502.96,80.63 C530.17,56.49 533.96,55.15 555.26,51.96 C559.790446,51.3929256 564.354609,51.1389897 568.92,51.2 C573.121501,51.2350529 577.321601,51.0313914 581.5,50.59 C595.5,48.83 609.27,41.49 620.16,29.94 C627.66,21.94 633.92,11.94 638.84,0.06 L637.76,0.06 C632.91,11.68 626.76,21.47 619.44,29.25 C608.71,40.64 595.19,47.87 581.37,49.6 C577.23123,50.0338287 573.071305,50.2341461 568.91,50.2 C564.297747,50.1380853 559.686736,50.3953664 555.11,50.97 C533.53,54.2 529.72,55.55 502.3,79.88 C489.37,91.35 478.65,125.29 478.01,141.7 C477.75,148.4 478.01,155.23 478.19,161.83 C478.52,171.71 478.85,181.93 477.55,191.83 C474.04,218.6 460.23,241.83 439.65,255.51 C422.721541,266.749229 408.951293,282.134039 399.65,300.2 C396.29,306.76 393.51,313.73 390.82,320.48 C386.66,330.92 382.35,341.72 375.82,351.09 C368.28,361.9 357.88,370.67 347.82,379.14 C345.72,380.906667 343.63,382.68 341.55,384.46 C330.05,394.37 317.55,406.56 312.07,421.94 C309.63,428.78 308.63,436.07 307.67,443.13 C307.05,447.63 306.42,452.29 305.41,456.78 C302.89,468.01 295.21,476.13 286.18,484.83 C266.77,503.54 244.77,524.76 232.7,550.83 C227.1,562.94 223.65,576.02 220.32,588.68 C218.02,597.4 215.65,606.42 212.59,615.04 C198.68,654.23 169.24,687.86 131.81,707.32 C97.34,725.33 41.06,732.06 0,723.77 L0,724.77 C12.5611928,727.185618 25.328862,728.364584 38.12,728.293329 C71.65,728.293329 107.54,721.15 132.29,708.29 Z" id="Path"></path>
            <path d="M113,751.06 C129.42,747.75 146.7,743.58 161.87,735.51 C169.4,731.51 175.75,725.23 181.87,719.16 C187.13,713.96 192.58,708.58 198.71,704.71 C214.08,695.01 225.42,677.71 232.41,653.15 C234.8,644.78 236.63,636.15 238.41,627.75 C240.86,616.13 243.41,604.11 247.46,592.75 C262.36,551.18 280.4,524.31 304.24,508.2 C309.24902,504.810681 313.568872,500.50101 316.97,495.5 C323.32,486.12 325.97,474.91 328.48,464.08 C330.67,454.75 332.92,445.08 337.54,436.67 C343.9,425.03 354.45,416.12 364.66,407.5 C374.87,398.88 385.32,390.06 391.8,378.4 C396.22,370.46 398.56,361.56 400.8,352.95 C402.39228,346.241025 404.471113,339.656939 407.02,333.25 C416.72,310.58 435.19,293.34 449.02,282.87 C476.527815,261.98671 494.659878,231.071616 499.46,196.87 C500.87,186.45 500.98,175.77 501.08,165.45 C501.14,159.65 501.2,153.65 501.49,147.77 C502.49,127.52 506.41,112.64 513.83,100.96 C526.23,81.46 551.32,68.54 579.31,67.26 C585.31,66.98 591.58,67.15 597.65,67.32 C614.58,67.78 632.09,68.25 646.18,59.2 C649.491642,56.9649986 652.633536,54.4882499 655.58,51.79 C658.864092,48.7322778 662.433754,45.9964302 666.24,43.62 C673.09,39.62 681.15,38.05 688.94,36.52 C692.12,35.9 695.4,35.25 698.57,34.45 C707.57,32.17 728.52,23.01 735.42,9.24 C736.879837,6.39661739 737.666753,3.25579641 737.72,0.06 L736.72,0.06 C736.661813,3.09010602 735.909171,6.06646451 734.52,8.76 C727.78,22.22 707.23,31.21 698.33,33.45 C695.18,34.25 691.91,34.89 688.75,35.51 C680.87,37.05 672.75,38.65 665.75,42.72 C661.893185,45.1323047 658.273669,47.9046997 654.94,51 C652.032884,53.6702759 648.930976,56.1203825 645.66,58.33 C631.83,67.21 614.48,66.74 597.66,66.33 C591.58,66.16 585.29,65.99 579.25,66.27 C551,67.53 525.56,80.62 513,100.4 C503.12,115.94 501.14,134.83 500.5,147.69 C500.21,153.59 500.15,159.6 500.09,165.41 C499.99,175.7 499.88,186.35 498.48,196.71 C493.714536,230.655286 475.715069,261.337421 448.41,282.06 C434.52,292.6 415.91,309.97 406.13,332.84 C403.559667,339.295246 401.464095,345.92955 399.86,352.69 C397.61,361.24 395.28,370.08 390.93,377.9 C384.54,389.38 374.09,398.21 363.98,406.75 C353.71,415.43 343.09,424.4 336.63,436.2 C331.95,444.76 329.68,454.47 327.48,463.86 C324.96,474.61 322.36,485.72 316.11,494.95 C312.783333,499.846688 308.554693,504.065147 303.65,507.38 C279.65,523.62 261.46,550.64 246.49,592.38 C242.4,603.81 239.86,615.86 237.4,627.51 C235.64,635.87 233.82,644.51 231.4,652.84 C224.47,677.11 213.28,694.27 198.13,703.84 C191.91,707.77 186.42,713.19 181.13,718.43 C175.04,724.43 168.75,730.67 161.35,734.61 C146.3,742.61 129.1,746.77 112.75,750.06 C105.47,751.53 96.94,753.67 87.9,755.93 C70.16,760.37 49.73,765.48 29.4,768.02 L36.63,768.02 C54.63,765.28 72.44,760.83 88.15,756.9 C97.19,754.68 105.71,752.55 113,751.06 Z" id="Path"></path>
            <path d="M682.17,744.61 C675.27,738.21 665.54,733.61 656.17,729.1 C649.57,725.95 643.34,722.98 638.02,719.46 C625.18,710.96 615.81,698.29 606.75,686.04 C605.29,684.04 603.826667,682.073333 602.36,680.14 C592.07,666.47 579.19,651.72 561.69,645.96 C549.02,641.78 535.48,638.19 522.41,640.18 C516.82,641.03 511.17,642.92 505.71,644.76 C498.41,647.2 490.87,649.76 483.41,649.76 C473.35,649.86 465.61,647.99 459.69,644.1 C454.89,640.94 450.8,636.1 446.84,628.98 C440.58,617.69 439.51,605.27 438.39,592.12 C437.928947,585.175086 437.060788,578.263208 435.79,571.42 C430.59509,545.718195 432.718983,519.07425 441.92,494.52 C443.13,491.31 444.5,488.05 445.82,484.9 C450.4,473.96 455.14,462.64 454.76,450.73 C454.44,440.83 450.58,431.46 446.85,422.39 C443.6,414.5 440.24,406.39 439.23,397.89 C437.53,383.61 442.68,370.7 447.29,362.38 C453.81,350.64 463.22,340.69 470.69,333.33 L471.97,332.07 C477.68,326.47 483.59,320.68 486.47,313.23 C489.55,305.3 488.01,294.5 480.11,290.15 C475.35,287.52 468.93,287.68 462.95,290.58 C457.47,293.23 452.95,297.73 449.37,301.34 C442.11,308.61 435.19,315.83 430.37,324.4 C425.16,333.59 422.51,344.06 419.96,354.18 C417.05,365.69 414.05,377.6 407.24,387.47 C401.63,395.59 393.68,401.97 386,408.14 C382.38,411.05 378.64,414.05 375.17,417.21 C368.94,422.89 354.66,438.03 356.75,455.98 C358.68,472.63 351.63,490.98 335.75,510.42 C331.62,515.5 327.13,520.48 322.8,525.3 C313.8,535.3 304.42,545.71 297.7,557.6 C286.37,577.6 282.95,600.95 279.64,623.49 C279.23,626.32 278.81,629.15 278.39,631.96 C274.49,657.52 268.52,683.79 251.34,702.79 C247.106828,707.276017 242.601649,711.497326 237.85,715.43 C232.1,720.43 226.15,725.54 221.38,731.6 C213.57,741.53 208.85,756.76 215.83,768.02 L217,768.02 C209.78,757.12 214.42,742.02 222.14,732.21 C226.84,726.21 232.76,721.12 238.48,716.21 C243.241062,712.252352 247.756124,708.007794 252,703.5 C269.36,684.3 275.38,657.86 279.29,632.15 C279.723333,629.336667 280.143333,626.51 280.55,623.67 C283.85,601.23 287.25,578.02 298.49,558.13 C305.16,546.34 314.49,536 323.49,526.01 C327.84,521.18 332.33,516.19 336.49,511.09 C352.49,491.4 359.63,472.83 357.67,455.91 C355.67,438.42 369.67,423.56 375.77,417.99 C379.22,414.85 382.95,411.86 386.55,408.99 C394.29,402.78 402.3,396.35 407.99,388.11 C414.9,378.11 417.93,366.11 420.86,354.49 C423.4,344.49 426.02,334.04 431.17,324.96 C435.96,316.51 442.83,309.33 450.05,302.12 C453.6,298.56 458.05,294.12 463.36,291.55 C469.05,288.8 475.12,288.62 479.6,291.09 C487.02,295.18 488.43,305.41 485.51,312.94 C482.7,320.18 476.88,325.94 471.24,331.42 L469.95,332.69 C462.44,340.09 452.95,350.11 446.39,361.97 C441.7,370.41 436.48,383.53 438.21,398.07 C439.21,406.67 442.62,414.89 445.89,422.84 C449.59,431.84 453.42,441.12 453.73,450.84 C454.1,462.53 449.41,473.75 444.86,484.59 C443.54,487.76 442.17,491.02 440.95,494.25 C431.586835,518.958408 429.44686,545.820821 434.78,571.7 C436.044762,578.50317 436.906265,585.375156 437.36,592.28 C438.45,604.96 439.57,618.07 445.93,629.54 C449.93,636.85 454.17,641.76 459.11,645.01 C465.2,649.01 473.17,650.9 483.39,650.84 C491.01,650.77 498.63,648.22 505.99,645.74 C511.42,643.92 516.99,642.04 522.53,641.2 C535.4,639.2 548.79,642.81 561.35,646.95 C578.58,652.63 591.35,667.24 601.53,680.78 C603,682.78 604.46,684.7 605.92,686.67 C615.03,699 624.45,711.74 637.44,720.34 C642.82,723.9 649.08,726.88 655.71,730.04 C665.06,734.49 674.71,739.04 681.51,745.38 C688.030425,751.483868 692.610647,759.371448 694.68,768.06 L695.68,768.06 C693.604096,759.075632 688.901108,750.912415 682.17,744.61 L682.17,744.61 Z" id="Path"></path>
            <path d="M631,744.67 C628.93,743.24 626.74,741.99 624.62,740.78 C619.49,737.86 614.62,735.1 611.77,730.06 C602.51,713.83 592.94,697.06 579.27,683.55 C564.07,668.55 545.38,660.23 527.9,660.7 C519.24,660.94 510.65,663.25 502.34,665.48 C491.67,668.35 480.63,671.32 469.66,669.72 C440.27,665.45 426.87,632.72 422.47,618.81 C409.716889,578.37649 411.435194,534.76478 427.33,495.46 C428.58,492.38 429.94,489.27 431.25,486.26 C434.3,479.31 437.44,472.11 439.48,464.67 C441.85,456 443.54,443.3 438.13,432.05 C433.62,422.68 422.72,414.18 410.61,416.05 C396.47,418.25 388.74,432.74 386.41,444.49 C385.390571,450.298204 384.759174,456.167864 384.52,462.06 C384.09,469.01 383.64,476.19 381.85,483 C378.46,495.85 370.43,507.05 362.67,517.88 C360.31,521.17 357.88,524.56 355.61,527.95 C337.745756,554.602953 327.351801,585.55691 325.51,617.59 C325.25,622.05 325.16,626.59 325.06,631.06 C324.72,646.91 324.37,663.3 316.96,677.32 C314.12,682.7 310.26,687.63 306.54,692.4 C302.07,698.11 297.45,704.01 294.54,710.74 C286.95,728.19 291.48,747.8 297.46,768.05 L298.46,768.05 C292.46,747.88 287.92,728.37 295.46,711.14 C298.34,704.53 302.92,698.67 307.34,693.01 C311.1,688.21 314.98,683.24 317.86,677.79 C325.39,663.55 325.74,647.05 326.08,631.08 C326.17,626.66 326.27,622.08 326.52,617.65 C328.360874,585.793086 338.698919,555.010296 356.46,528.5 C358.72,525.13 361.15,521.74 363.46,518.5 C371.28,507.59 379.36,496.31 382.8,483.28 C384.61,476.38 385.06,469.15 385.49,462.16 C385.725098,456.304945 386.349814,450.472042 387.36,444.7 C389.63,433.27 397.11,419.17 410.74,417.06 C422.36,415.26 432.84,423.47 437.19,432.51 C442.48,443.51 440.81,455.92 438.48,464.43 C436.48,471.8 433.33,478.96 430.31,485.88 C428.99,488.88 427.63,492.01 426.38,495.11 C410.397349,534.620815 408.6684,578.463276 421.49,619.11 C425.94,633.17 439.49,666.35 469.49,670.7 C480.66,672.32 491.8,669.33 502.57,666.44 C510.82,664.22 519.35,661.92 527.89,661.69 C545.09,661.24 563.53,669.45 578.53,684.25 C592.11,697.64 601.65,714.37 610.87,730.55 C613.87,735.82 618.87,738.65 624.1,741.64 C626.2,742.84 628.37,744.07 630.4,745.48 C638.27,750.92 644.47,755.85 649.1,762.2 C650.444584,764.037887 651.616244,765.996233 652.6,768.05 L653.69,768.05 C652.645239,765.784046 651.379085,763.626895 649.91,761.61 C645.21,755.16 639,750.17 631,744.67 Z" id="Path"></path>
            <path d="M567.48,735.8 C559.27,721.91 550.78,707.54 536.43,699.9 C522.86,692.68 506.91,693.04 491.49,693.38 C477.49,693.69 463.1,694.01 450.38,688.76 C438.52,683.85 427.95,673.76 420.63,660.25 C413.85,647.77 410.31,633.86 407.51,620.68 C395.68,565.19 398.51,521.46 416.02,487 L417.3,484.52 C420.45,478.52 423.7,472.23 423.5,465.43 C423.26464,460.682355 420.930467,456.285168 417.13,453.43 C414.576923,451.414826 411.224451,450.7184 408.08,451.55 C403.18,452.95 400.35,457.79 399.34,461.86 C398.66344,465.044266 398.351433,468.29518 398.41,471.55 C398.41,472.82 398.35,474.13 398.28,475.41 C397.28,492.7 388.04,508.11 379.08,523.02 C373.3,532.64 367.32,542.58 363.47,553.08 C356.25,572.77 356.58,594.13 356.89,614.79 C357.09,628.3 357.3,642.27 355.42,655.72 C353.82,667.21 350.63,678.62 347.55,689.66 C345.46,697.14 343.3,704.89 341.65,712.61 C336.81,735.14 337.7,753.31 344.36,768.06 L345.46,768.06 C338.73,753.43 337.79,735.34 342.62,712.81 C344.27,705.12 346.43,697.4 348.52,689.93 C351.6,678.86 354.8,667.42 356.41,655.85 C358.3,642.33 358.09,628.33 357.89,614.78 C357.58,594.21 357.25,572.94 364.41,553.43 C368.23,543.01 374.18,533.11 379.93,523.53 C388.93,508.53 398.29,493 399.28,475.47 C399.35,474.17 399.38,472.85 399.41,471.57 C399.353906,468.38957 399.655805,465.212926 400.31,462.1 C401.26,458.31 403.87,453.79 408.31,452.51 C411.160132,451.765801 414.194317,452.406721 416.5,454.24 C420.0733,456.897952 422.273496,461.012318 422.5,465.46 C422.69,472 419.5,478.13 416.41,484.06 C415.98,484.89 415.55,485.72 415.13,486.55 C397.47,521.22 394.65,565.16 406.53,620.89 C409.35,634.14 412.91,648.14 419.75,660.73 C427.18,674.4 437.93,684.73 450,689.73 C462.91,695.07 477.45,694.73 491.51,694.43 C506.81,694.09 522.62,693.74 535.96,700.84 C550.06,708.34 558.48,722.58 566.62,736.36 C573.49,747.99 580.62,759.95 591.1,768.11 L592.79,768.11 C581.81,760.06 574.53,747.73 567.48,735.8 Z" id="Path"></path>
            <path d="M479.18,714.26 C473.603035,712.58845 467.924749,711.275764 462.18,710.33 C454.43,708.88 446.42,707.38 439.18,704.05 C425.04,697.51 416.29,685.05 411.43,675.83 C405.31,664.16 401.85,651.22 398.55,637.88 C396.38,629.11 392.9,624.59 387.92,624.07 C384.14,623.66 380.15,626.14 378.21,630.07 C376.27,634 376.46,638.42 376.75,641.48 C377.472079,647.387628 378.659095,653.229083 380.3,658.95 C382.3,666.5 384.3,674.3 383.99,682.14 C383.67,690.6 380.68,698.79 377.79,706.71 C375.788022,711.881648 374.117965,717.17573 372.79,722.56 C369.40488,737.856635 371.633853,753.860519 379.07,767.65 L379.94,767.17 C372.631625,753.590523 370.438737,737.839341 373.76,722.78 C375.093644,717.436575 376.763639,712.182771 378.76,707.05 C381.68,699.05 384.7,690.8 385.02,682.18 C385.31,674.18 383.27,666.32 381.3,658.7 C379.673017,653.03161 378.496028,647.243633 377.78,641.39 C377.33,636.65 377.78,633.3 379.13,630.51 C380.48,627.72 383.91,624.67 387.84,625.07 C392.36,625.55 395.55,629.82 397.6,638.13 C400.92,651.53 404.41,664.54 410.6,676.3 C415.53,685.7 424.43,698.3 438.82,704.97 C446.13,708.35 454.21,709.86 462.02,711.32 C467.723509,712.261575 473.361509,713.564193 478.9,715.22 C491.9,719.43 504.39,728.03 515.03,740.1 C522.383263,748.698961 528.755883,758.09019 534.03,768.1 L535.17,768.1 C530.17,758.9 523.86,748.62 515.79,739.47 C505,727.23 492.35,718.53 479.18,714.26 Z" id="Path"></path>
            <path d="M474.11,740.6 C462.21,731.75 448.95,726.6 435.75,725.66 C428.94,725.18 419.32,725.8 412.14,731.47 C407,735.52 403.42,742.06 402,749.92 C400.93,755.98 401.15,762.09 401.55,768.06 L402.55,768.06 C402.16,762.13 401.93,756.06 402.99,750.06 C404.34,742.45 407.8,736.12 412.74,732.22 C419.67,726.74 429.03,726.15 435.66,726.61 C448.66,727.53 461.75,732.61 473.49,741.36 C482.49,748.05 490.83,757.01 498.34,768.02 L499.55,768.02 C491.9,756.7 483.34,747.47 474.11,740.6 Z" id="Path"></path>
            <path d="M61.26,375.65 C66.03,371.17 70.97,366.55 77.26,364.92 C86.32,362.58 95.16,367.19 99.62,370.15 C103.573286,372.907373 107.326034,375.941652 110.85,379.23 C113.16,381.28 115.55,383.41 118.02,385.36 C125.87,391.55 133.08,394.57 140.13,394.46 C147.96,394.38 156.97,389.05 157.86,380.57 C158.31,376.25 156.54,371.57 153,367.64 C149.8,364.12 145.63,361.64 141.59,359.42 C122.93,349.29 102.89,343.55 83.64,342.82 C62,342.06 23.88,349.79 0,356.06 L0,357.06 C23.79,350.85 62,343.01 83.62,343.84 C102.71,344.56 122.62,350.26 141.12,360.32 C145.12,362.46 149.12,364.92 152.27,368.32 C155.62,372.01 157.27,376.44 156.88,380.48 C156.04,388.41 147.53,393.4 140.13,393.48 C133.31,393.54 126.31,390.64 118.65,384.59 C116.2,382.66 113.82,380.59 111.53,378.5 C107.966161,375.188348 104.177082,372.127681 100.19,369.34 C95.58,366.29 86.46,361.53 77.02,363.97 C70.47,365.66 65.44,370.38 60.57,374.97 C59.2,376.26 57.78,377.59 56.36,378.82 C45.38,388.27 18.14,394.14 0,395.06 L0,396.06 C18.32,395.17 45.87,389.23 57,379.59 C58.45,378.28 59.88,376.94 61.26,375.65 Z" id="Path"></path>
            <path d="M85.73,394.06 C97.47,393.76 108.37,399.23 117.52,404.63 C119.39,405.73 121.25,406.87 123.11,408 C130.9,412.76 138.97,417.68 147.9,420.29 C157.85,423.2 171.66,423.22 180.56,414.54 C186.06,409.17 188.92,400.77 188.19,392.06 C187.59,384.84 184.79,377.48 179.65,369.54 C165,346.91 137.72,330.67 106.7,326.06 C80.15,322.15 30,331.59 0,340.64 L0,341.69 C30.39,332.51 81,323.29 106.55,327.07 C137.29,331.61 164.31,347.69 178.81,370.07 C183.86,377.86 186.6,385.07 187.19,392.12 C187.9,400.53 185.19,408.64 179.86,413.8 C171.27,422.18 157.86,422.14 148.18,419.31 C139.38,416.74 131.37,411.85 123.63,407.13 C121.76,405.99 119.9,404.86 118.02,403.75 C108.76,398.28 97.69,392.75 85.71,393.04 C74.85,393.31 62.56,401.04 49.56,409.21 C34.36,418.77 17.39,429.45 0,429.65 L0,430.65 C17.66,430.45 34.77,419.71 50.09,410.08 C63,401.97 75.15,394.32 85.73,394.06 Z" id="Path"></path>
            <path d="M82.63,419.77 C101.13,419.37 118.2,427.86 134.7,436.06 C146.97,442.16 159.7,448.47 173.1,451.31 C202.17,457.46 234.91,445.47 252.71,422.15 C258.49,414.58 261.56,407.25 261.84,400.36 C262.2,391.7 257.58,383.49 250.6,380.36 C246.09,378.36 241.06,378.45 236.19,378.53 C234.19,378.53 232.1,378.59 230.09,378.48 C216.8,377.72 203.47,370.29 189.34,355.76 C186.43,352.76 183.56,349.61 180.78,346.56 C172.93,337.93 164.78,329 154.78,322.56 C136.9,311.21 115.19,309.12 98.27,308.56 C77.81,308 36.68,316.06 0,330.87 L0,331.95 C36.32,317.29 78.28,308.95 98.21,309.65 C115.01,310.2 136.55,312.27 154.21,323.5 C164.15,329.81 172.21,338.69 180.03,347.27 C182.81,350.33 185.69,353.49 188.61,356.5 C202.93,371.21 216.47,378.74 230.03,379.5 C232.03,379.62 234.17,379.58 236.2,379.55 C240.96,379.47 245.88,379.39 250.2,381.29 C256.82,384.22 261.2,392.04 260.86,400.29 C260.58,406.97 257.57,414.11 251.92,421.51 C234.35,444.51 202.02,456.37 173.32,450.3 C160.01,447.49 147.37,441.21 135.15,435.14 C118.55,426.89 101.36,418.33 82.62,418.74 C70.47,418.99 57.77,423.03 44.87,430.74 C34.71,436.85 15,450.06 0,463.96 L0,465.33 C15.05,451.26 35.1,437.78 45.37,431.63 C58.12,424.06 70.65,420.06 82.63,419.77 Z" id="Path"></path>
            <path d="M168.06,308.75 C175.58,314.04 182.19,320.67 188.58,327.09 C195.53,334.09 202.71,341.27 211.09,346.81 C223.47993,354.88977 237.958372,359.178392 252.75,359.150287 C282.389885,359.232189 309.230468,341.653082 321,314.45 C324.23,306.81 326.21,298.45 328.11,290.39 C331.47,276.16 334.65,262.72 344.11,252.39 C352.95,242.74 365.7,237.87 378.04,233.17 C387.53,229.55 397.34,225.81 405.55,219.9 C416.99,211.66 424.95,198.35 427.38,183.37 C429.78,168.54 426.5,153.6 418.38,142.37 C415.777135,138.90952 412.986269,135.594533 410.02,132.44 C404.36,126.2 398.51,119.75 396.23,111.74 C391.23,94.1 405.29,77.6 411.58,71.33 C415.58,67.33 419.98,63.61 424.24,59.99 C431.6,53.74 439.24,47.28 444.93,39.35 C453.17,27.96 456.74,11.6 449.26,0.06 L448,0.06 C455.59,11.21 452,27.77 444.14,38.71 C438.54,46.53 431,52.96 423.65,59.17 C419.38,62.8 414.95,66.55 410.93,70.56 C404.52,76.96 390.17,93.8 395.33,111.95 C397.67,120.19 403.6,126.73 409.33,133.06 C412.268479,136.184862 415.035852,139.466318 417.62,142.89 C425.62,153.89 428.79,168.59 426.43,183.16 C424.06,197.88 416.25,210.95 405,219.06 C396.89,224.89 387.14,228.61 377.71,232.21 C365.27,236.95 352.4,241.86 343.4,251.68 C333.72,262.25 330.4,276.45 327.13,290.18 C325.23,298.18 323.27,306.52 320.07,314.08 C311.427265,333.994887 294.401343,349.054167 273.58,355.2 C252.55796,361.301154 229.920802,357.938441 211.58,345.99 C203.28,340.52 196.14,333.34 189.23,326.41 C182.81,319.96 176.16,313.29 168.58,307.95 C147.09,292.82 120.98,290.18 102.86,290.63 C81.45,291.15 36.86,299.76 0,317.26 L0,318.36 C36.8,300.79 81.48,292.15 102.94,291.61 C120.92,291.18 146.8,293.78 168.06,308.75 Z" id="Path"></path>
            <path d="M128.25,454.06 C135.33,458.42 141.85,464.01 148.15,469.41 C158.44,478.22 169.08,487.34 182.32,491.19 C211.94,499.8 241.1,479.19 257.09,458.86 C265.67,447.95 272.69,435.74 279.47,423.92 C286.59,411.53 293.95,398.71 303.12,387.44 C310.18,378.75 318.47,370.78 326.49,363.08 C338.49,351.54 350.91,339.61 359.37,325.08 C363.197367,318.152216 366.564643,310.98005 369.45,303.61 C373.09,294.89 376.85,285.87 382.21,277.91 C390.01,266.32 401.21,256.91 411.96,247.91 C425.56,236.49 439.63,224.67 446.8,208.44 C454.85,190.26 452.86,169.81 450.93,150.02 C449.06,130.72 447.12,110.76 454.54,93.02 C464,70.4 486.9,55.82 505.83,45.63 C510.73,43 517.7,40.29 525.77,37.15 C547.15,28.84 575,18.06 584.56,0.06 L583.41,0.06 C573.73,17.43 546.41,28.06 525.41,36.22 C517.31,39.37 510.31,42.09 505.41,44.75 C486.33,55.02 463.2,69.75 453.66,92.56 C446.15,110.56 448.1,130.64 449.99,150.07 C451.9,169.72 453.88,190.07 445.94,207.98 C438.86,223.98 424.88,235.74 411.37,247.1 C400.52,256.21 389.31,265.63 381.43,277.34 C376.02,285.34 372.24,294.45 368.58,303.21 C365.58,310.37 362.51,317.77 358.58,324.57 C350.2,338.97 337.84,350.85 325.88,362.34 C317.88,370.06 309.52,378.05 302.42,386.79 C293.2,398.12 285.82,410.98 278.68,423.41 C271.92,435.19 264.92,447.41 256.38,458.22 C240.59,478.28 211.82,498.69 182.68,490.22 C169.68,486.43 159.09,477.39 148.88,468.64 C142.55,463.21 136.01,457.64 128.88,453.2 C108.26,440.55 89.67,437.06 70.28,442.06 C47.75,447.97 24.68,465.43 0,495.34 L0,496.93 C58.69,425.42 99.24,436.17 128.25,454.06 Z" id="Path"></path>
            <path d="M94.43,704.94 C111.32,699.32 127.43,688.81 145.29,671.86 C173.124928,645.32858 195.043133,613.218001 209.61,577.63 C214.01,566.81 218.42,553.97 217.81,540.72 C217.16,526.72 210.34,514.3 200.01,508.32 C193.23,504.39 185.27,503.2 177.58,502.05 C174.84,501.64 172,501.22 169.28,500.68 C156.314467,498.113914 144.129499,492.548829 133.7,484.43 C130.75,482.12 127.9,479.57 125.15,477.1 C120.56,472.99 115.82,468.74 110.43,465.48 C98.37,458.15 83,455.83 68.15,459.06 C54.37,462.14 17.47,490.62 0,516.06 L0,517.82 C17.73,490.95 55.93,462.82 68.37,460.07 C82.92,456.86 98.07,459.14 109.91,466.33 C115.22,469.55 119.91,473.77 124.48,477.85 C127.24,480.33 130.1,482.85 133.08,485.21 C143.632031,493.427263 155.960812,499.060831 169.08,501.66 C171.83,502.21 174.68,502.66 177.43,503.04 C185.03,504.18 192.89,505.35 199.51,509.18 C209.51,515 216.18,527.1 216.81,540.76 C217.41,553.83 213.04,566.54 208.69,577.25 C194.173442,612.705979 172.33373,644.69712 144.6,671.13 C126.9,687.98 110.86,698.42 94.11,703.99 C68.56,712.48 30.89,708.99 0,704.56 L0,705.56 C17.14,707.99 36.36,710.150053 54.46,710.150053 C69.07,710.16 83,708.75 94.43,704.94 Z" id="Path"></path>
            <path d="M100.91,677.15 C129.16895,666.836604 153.247817,647.508851 169.43,622.15 C179.43,606.48 184.12,591.53 183.43,577.71 C182.27,555.78 167.43,536.71 154.57,522.45 C145.9,512.84 134.12,500.69 119.83,491.85 C109.65,485.55 93.69,478.23 75.37,479.1 C67.37,479.48 27.9,484.24 0.03,539.94 L0.03,542.22 C27.66,485.26 67.45,480.45 75.39,480.06 C93.39,479.2 109.22,486.44 119.27,492.66 C133.45,501.43 145.17,513.52 153.8,523.08 C166.51,537.17 181.26,556.08 182.4,577.72 C183.11,591.33 178.47,606.08 168.59,621.57 C152.532831,646.749087 128.637719,665.945999 100.59,676.2 C77.23,684.65 32.88,691.68 0,679.27 L0,680.34 C12.83,685.12 27.35,686.99 41.7,686.99 C64.37,686.99 86.58,682.33 100.91,677.15 Z" id="Path"></path>
            <path d="M84.22,665.87 C90.73,664.62 98.22,662.96 104.47,659.01 C110.01,655.52 114.36,650.38 118.35,645.41 C127.52,633.98 137.68,620.14 143.5,604.16 C149.62,587.39 149.82,570.56 144.06,556.78 C140.71,548.78 135.36,541.7 130.19,534.87 C128.51,532.66 126.78,530.37 125.19,528.1 C123.74,526.1 122.28,523.94 120.86,521.88 C113.5,511.14 105.86,500.04 93.86,494.88 C82.12,489.82 66.92,491.34 53.19,498.95 C42.46,504.89 12.89,529.5 0.03,561.95 L0.03,564.74 C12.22,531.37 42.77,505.87 53.67,499.84 C67.14,492.38 82.01,490.84 93.46,495.84 C105.22,500.91 112.75,511.84 120.03,522.5 C121.44,524.57 122.91,526.7 124.37,528.74 C126.01,531.03 127.74,533.32 129.37,535.53 C134.51,542.32 139.82,549.34 143.11,557.22 C148.78,570.78 148.57,587.35 142.55,603.88 C136.77,619.72 126.67,633.48 117.55,644.88 C113.45,649.98 109.33,654.88 103.92,658.25 C97.8,662.11 90.43,663.75 84.01,664.98 C66.28,668.39 24.21,665.57 0.01,651.98 L0.01,653.06 C18.36,663.06 46.43,667.19 66.85,667.19 C72.6679463,667.274298 78.4816031,666.8325 84.22,665.87 Z" id="Path"></path>
            <path d="M107.31,619.41 C112.67,610.27 114.51,600.87 112.49,592.96 C110.87,586.61 106.87,581.19 103,575.96 C99.59,571.34 96.06,566.56 94.2,561.18 C93.275323,558.154754 92.606306,555.057205 92.2,551.92 C91.54,547.92 90.87,543.8 89.1,540.04 C83.31,527.78 67.45,523.52 55.46,526.49 C42.59,529.66 19,546.11 9.87,567.57 C-0.49,591.9 -1.19,624.99 17.92,638.41 C28.571815,645.76555 41.2153216,649.693968 54.16,649.670109 C58.4477745,649.67711 62.724481,649.234692 66.92,648.35 C83.8031689,644.69728 98.4227273,634.222162 107.31,619.41 L107.31,619.41 Z M66.71,647.41 C49.9755285,650.866789 32.5552748,647.333606 18.49,637.63 C-0.18,624.52 0.58,591.97 10.79,568 C19.79,546.84 43.03,530.62 55.65,527.5 C67.25,524.63 82.57,528.71 88.14,540.5 C89.85,544.13 90.52,548.19 91.14,552.11 C91.5696365,555.303344 92.2687989,558.454593 93.23,561.53 C95.14,567.06 98.72,571.9 102.23,576.53 C106.04,581.69 109.98,587.02 111.55,593.19 C113.55,600.84 111.7,609.97 106.47,618.89 C97.7281285,633.475723 83.3330279,643.786902 66.71,647.37 L66.71,647.41 Z" id="Shape"></path>
            <path d="M60.45,552.86 C54.66,549.92 46.66,550.76 40.06,554.99 C34.17,558.78 29.97,564.33 25.85,570.17 C15.85,584.3 16.44,614.17 21.36,619.73 C25.12,624.01 34.48,628.36 43.45,628.36 C46.2130797,628.394911 48.9589354,627.920319 51.55,626.96 C61.26,623.21 69.06,614.29 72.41,603.1 C75.19,593.85 75.1,583.1 72.16,571.15 C69.82,561.65 66,555.67 60.45,552.86 Z M71.45,602.86 C68.19,613.75 60.61,622.43 51.19,626.06 C41.25,629.9 26.92,624.57 22.11,619.06 C17.47,613.79 17.11,584.25 26.66,570.74 C30.73,564.98 34.86,559.51 40.6,555.82 C46.91,551.82 54.52,550.96 59.99,553.74 C65.26,556.41 68.92,562.18 71.19,571.38 C74.09,583.16 74.18,593.73 71.45,602.82 L71.45,602.86 Z" id="Shape"></path>
            <path d="M80.47,277.53 C83.34,278.04 86.22,278.72 89.02,279.38 C94.0193412,280.714093 99.1252505,281.610806 104.28,282.06 C113.81,282.61 122.08,279.51 126.4,273.75 C133.33,264.53 129.08,251.75 123.33,243.57 C118.33,236.57 111.78,230.57 105.42,224.83 C97.69,217.83 89.69,210.61 84.73,201.46 C78.83,190.58 77.73,177.91 76.6,165.67 C75.69,155.46 74.75,144.91 71.09,135.24 C65.8100328,121.627427 55.6048135,110.497706 42.5,104.06 C29.2709609,97.64982 14.1526929,96.3051834 0,100.28 L0,100.8 L0.14,101.28 C14.0880069,97.3135125 29.0074214,98.6125551 42.06,104.93 C54.9417495,111.264209 64.9691987,122.212656 70.15,135.6 C73.77,145.13 74.7,155.6 75.61,165.76 C76.71,178.1 77.85,190.87 83.85,201.94 C88.85,211.24 96.95,218.53 104.75,225.57 C111.07,231.29 117.6,237.19 122.51,244.15 C128.07,252.03 132.21,264.36 125.6,273.15 C121.48,278.64 113.52,281.59 104.34,281.06 C99.242597,280.61649 94.1935141,279.729806 89.25,278.41 C86.44,277.74 83.54,277.06 80.65,276.54 C65.26,273.81 24.5,287.54 0,302.81 L0,304.06 C24.05,288.92 65.48,274.85 80.47,277.53 Z" id="Path"></path>
            <path d="M41.75,71.27 C61.61,75.27 79.01,87.15 86.09,101.45 C93.09,115.51 94.15,131.57 95.22,147.1 C96.22,161.04 97.22,175.45 102.35,188.57 C110.18,208.47 126.67,223.47 142.61,237.97 C145.83,240.9 149.17,243.97 152.36,246.97 C155.55,249.97 158.89,253.26 162.05,256.36 C174.48,268.57 187.34,281.19 203.14,289.22 C212.717991,294.056146 223.280755,296.622416 234.01,296.72 C245.72,296.72 257.27,293.31 265.92,284.78 C273.78,277.03 277.72,266.45 281.54,256.22 C285.36,245.99 289.4,235.13 297.46,227.53 C309.73,215.98 327.79,214.35 345.27,212.78 C347.67,212.57 350.07,212.35 352.43,212.11 C364.67,210.87 393.84,205.65 400.3,184.11 C403.46,173.56 400.44,161.29 391.3,147.63 C389.12,144.38 386.74,141.16 384.43,138.06 C379.17,130.98 373.74,123.67 370.49,115.44 C363.77,98.39 366.11,77.63 377.49,53.73 C381.05,46.23 385.2,38.84 389.22,31.73 C394.88,21.53 400.74,11.06 405.05,0.06 L404,0.06 C399.73,10.87 393.95,21.18 388.33,31.19 C384.33,38.35 380.14,45.76 376.57,53.29 C365.1,77.46 362.75,98.48 369.57,115.79 C372.87,124.15 378.34,131.52 383.64,138.65 C385.94,141.74 388.32,144.94 390.48,148.18 C399.48,161.57 402.42,173.56 399.35,183.81 C393.07,204.76 364.35,209.87 352.35,211.1 C350,211.34 347.61,211.55 345.21,211.77 C327.56,213.35 309.32,214.99 296.81,226.77 C288.57,234.53 284.54,245.36 280.63,255.84 C276.85,265.97 272.95,276.44 265.25,284.04 C248.9,300.17 221.84,297.55 203.62,288.3 C187.96,280.3 175.16,267.77 162.79,255.62 C159.62,252.51 156.34,249.29 153.07,246.21 C149.8,243.13 146.54,240.15 143.31,237.21 C127.45,222.78 111.06,207.87 103.31,188.21 C98.2,175.21 97.21,160.91 96.25,147.05 C95.17,131.41 94.05,115.25 87.01,101.05 C79.81,86.49 62.13,74.43 42.01,70.34 C26.51,67.17 11.72,69.16 0,75.72 L0,76.87 C11.59,70.2 26.34,68.15 41.75,71.27 Z" id="Path"></path>
            <path d="M120.14,87.18 C120.98,97.26 120.25,107.55 119.54,117.5 C119.21,122.25 118.86,127.16 118.68,131.99 C118.25,143.88 118.68,161.36 126.87,175.91 C134,188.5 146,197.42 157.54,206.06 C166.54,212.78 175.88,219.73 182.94,228.4 C184.94,230.85 186.85,233.54 188.7,236.13 C194.56,244.35 200.62,252.84 210.32,255.82 C212.587109,256.520663 214.947093,256.874661 217.32,256.870045 C227.19,256.870045 236.53,251.05 242.23,245.15 C248.32,238.84 252.69,231.15 256.91,223.63 C258.29,221.2 259.7,218.69 261.16,216.27 C265.92,208.34 273.61,197.27 285.32,192.79 C294.32,189.33 304.32,190.18 314.09,191 L318.87,191.39 C328.55,192.09 342.46,192.08 351.49,183.87 C361.06,175.18 361.41,160.87 358.56,150.44 C356.42,142.63 352.56,135.32 348.88,128.26 C347.16,124.97 345.37,121.57 343.79,118.17 C328.48,85.26 330.92,28.52 355.88,0.06 L354.52,0.06 C343.32,13.13 336.06,32.32 333.88,54.96 C331.67,77.96 335.04,101.7 342.88,118.58 C344.48,122 346.27,125.41 348,128.71 C351.68,135.71 355.49,142.99 357.59,150.71 C360.37,160.88 360.05,174.71 350.82,183.13 C342.1,191.06 328.47,191.06 319,190.38 L314.23,190 C304.4,189.17 294.23,188.31 285.02,191.84 C273.02,196.44 265.2,207.69 260.36,215.74 C258.9,218.17 257.48,220.69 256.1,223.13 C251.91,230.55 247.57,238.23 241.57,244.45 C234.72,251.53 222.51,258.51 210.64,254.86 C201.27,251.97 195.31,243.62 189.55,235.54 C187.68,232.93 185.76,230.23 183.75,227.76 C176.61,219 167.24,212.01 158.17,205.25 C146.68,196.68 134.79,187.83 127.77,175.42 C119.66,161.09 119.29,143.79 119.71,132.03 C119.89,127.21 120.23,122.31 120.57,117.58 C121.28,107.58 122.01,97.25 121.16,87.1 C119.71,69.75 112.16,49.45 100.98,32.8 C93.56,21.82 81.89,8.28 65.53,0.06 L63.26,0.06 C98.38,16.39 117.86,59.95 120.14,87.18 Z" id="Path"></path>
            <path d="M143.76,54.4 C143.42,66.55 140.76,78.68 138.19,90.4 C136.19,99.57 134.11,109.05 133.13,118.53 C130.43,144.81 138.51,166.75 154.74,177.23 C159.53,180.32 164.96,182.38 170.21,184.37 C175.46,186.36 180.63,188.37 185.27,191.27 C188.247205,193.256818 191.102349,195.420716 193.82,197.75 C199.82,202.68 206,207.75 213.82,208.44 C214.4,208.49 214.99,208.52 215.57,208.52 C224.06,208.52 232.57,203.24 241.42,192.43 C242.13,191.57 242.85,190.68 243.56,189.8 C249.74,182.16 256.13,174.27 265.41,171.5 C270.79,169.89 276.59,170.25 282.19,170.6 C286.315274,170.965036 290.464726,170.965036 294.59,170.6 C309.21,168.92 321.94,156.89 324.19,142.6 C326.19,129.89 320.66,117.65 315.31,105.82 C314.31,103.7 313.4,101.59 312.49,99.48 C299.070956,68.1381079 295.645252,33.4201147 302.68,0.06 L301.68,0.06 C294.63676,33.5912058 298.100692,68.4784507 311.6,99.97 C312.5,102.08 313.46,104.19 314.42,106.32 C319.71,118.02 325.18,130.12 323.23,142.54 C321,156.36 308.67,168.06 294.47,169.66 C290.404399,170.014951 286.315601,170.014951 282.25,169.66 C276.56,169.31 270.67,168.94 265.12,170.6 C255.55,173.46 249.06,181.48 242.79,189.23 L240.65,191.86 C231.38,203.13 222.65,208.25 213.91,207.51 C206.39,206.87 200.59,202.09 194.45,197.04 C191.705524,194.683437 188.820192,192.496061 185.81,190.49 C181.08,187.49 175.74,185.49 170.57,183.49 C165.4,181.49 159.98,179.49 155.28,176.49 C139.38,166.22 131.47,144.63 134.13,118.74 C135.13,109.31 137.13,99.86 139.13,90.74 C141.71,78.97 144.37,66.74 144.72,54.55 C145.23,37.66 141.5,19.86 133.37,0.06 L132.29,0.06 C140.47,19.88 144.23,37.67 143.76,54.4 Z" id="Path"></path>
            <path d="M169.07,80.26 C166.5,86.52 162.77,92.39 159.16,98.06 C155.590675,103.364788 152.431498,108.934301 149.71,114.72 C144.38,126.88 143.79,143.04 154.5,151.72 C159.18,155.53 165.16,157.1 170.95,158.62 C174.571123,159.487658 178.118656,160.637848 181.56,162.06 C184.220557,163.30616 186.805071,164.70861 189.3,166.26 C194.53,169.36 199.91,172.56 205.93,172.56 C206.38,172.56 206.84,172.56 207.3,172.51 C213.25,172.02 218.08,168.37 222.75,164.85 C226.16,162.27 229.69,159.61 233.64,158.17 C239.73,155.95 246.5,156.7 253.05,157.42 C259.82,158.18 266.83,158.95 273.2,156.5 C285.54,151.74 290.29,136.74 288.6,124.37 C287.39,115.46 283.67,107.07 280.07,98.95 C278.61,95.68 277.07,92.28 275.8,88.95 C266.45,64.95 267.21,25.66 273.54,0.14 L272.54,0.14 C266.23,25.84 265.54,65.24 274.89,89.31 C276.22,92.71 277.73,96.11 279.18,99.4 C282.76,107.4 286.45,115.78 287.64,124.55 C289.28,136.55 284.73,151.04 272.87,155.6 C266.73,157.97 259.87,157.21 253.19,156.47 C246.51,155.73 239.63,154.97 233.33,157.27 C229.23,158.76 225.64,161.47 222.17,164.09 C217.41,167.69 212.91,171.09 207.25,171.55 C200.99,172.06 195.58,168.85 189.84,165.44 C187.316146,163.825304 184.698157,162.362702 182,161.06 C178.504949,159.634924 174.904017,158.484766 171.23,157.62 C165.29,156.06 159.68,154.62 155.16,150.92 C144.91,142.6 145.64,126.51 150.65,115.09 C153.344787,109.364594 156.470439,103.85208 160,98.6 C163.63,92.89 167.39,86.99 170,80.6 C178.28,60.43 172.14,25.97 166.08,0.03 L165.08,0.03 C171.1,25.88 177.28,60.27 169.07,80.26 Z" id="Path"></path>
            <path d="M207.48,143.990076 C209.307944,143.994421 211.131291,143.806723 212.92,143.43 C219.92,141.94 226.84,137.56 232.92,130.74 C243.633689,118.64863 248.956429,102.712908 247.66,86.61 C246.8,76.4 241.77,68.81 233.48,65.23 C223.26,60.81 209.48,63.32 199.23,71.46 C181.01,85.91 169.13,110.65 181.68,129.95 C187.452604,138.582805 197.096219,143.830726 207.48,143.990076 L207.48,143.990076 Z M199.81,72.24 C206.237657,67.0795238 214.19833,64.2020024 222.44,64.0592158 C226.065416,64.0322099 229.658486,64.7433383 233,66.15 C240.93,69.57 245.76,76.87 246.59,86.69 C247.863911,102.510992 242.643369,118.169007 232.13,130.06 C226.24,136.71 219.52,140.99 212.71,142.44 C201.64,144.78 188.92,139.3 182.48,129.39 L182.48,129.39 C170.25,110.6 182,86.42 199.81,72.24 Z" id="Shape"></path>
            <path d="M682.41,719.19 L679.18,717.29 C668.57,711.05 657.59,704.59 648.88,695.84 C639.88,686.84 633.52,675.59 627.33,664.71 C625.49,661.46 623.58,658.1 621.63,654.86 C614.69,643.3 603.51,627.16 586.63,620.44 C571.69,614.52 554.9,616.78 541.93,619.44 C538.46,620.14 534.93,620.93 531.53,621.7 C520.53,624.19 509.1,626.7 497.66,626.7 C480.53,626.59 466.11,619.88 459.11,608.7 C454.53,601.43 453.27,592.7 452.45,585.09 C449.35,556.44 450.76,515.46 457.75,502.45 C458.75,500.6 459.91,498.55 461.14,496.38 C468.68,483.12 478.99,464.96 475.77,449.38 C474.23,441.97 470.16,434.17 466.21,426.62 C460.49,415.67 454.57,404.35 456.01,393.72 C457.94,379.47 468.31,369.3 479.29,358.54 C492.77,345.32 506.72,331.66 507.21,308.84 C507.33,303.34 505.45,295.74 503.63,288.4 C501.69,280.53 499.63,272.4 500.03,266.66 C500.54,258.28 503.14,253.45 506.14,247.85 C508.36947,243.924327 510.253237,239.812161 511.77,235.56 C518.26,216.66 522.52,194.28 525.18,165.14 C527.18,142.76 529.52,117.39 550.12,105.4 C564.12,97.27 581.06,96.99 597.47,96.73 C613.24,96.47 629.55,96.21 643.47,89.07 C650.47,85.49 656.47,80.33 662.3,75.33 C665.48,72.6 668.78,69.77 672.19,67.24 C679.06,62.14 693.26,57.66 706.98,53.34 C718.15,49.81 728.69,46.49 734.8,43 C743.51,38 752.48,24.5 755.66,11.54 C756.615908,7.79315214 756.967,3.91763402 756.7,0.06 L755.7,0.06 C755.947609,3.83590572 755.589757,7.62711362 754.64,11.29 C751.52,24.02 742.75,37.29 734.25,42.13 C728.25,45.56 717.74,48.87 706.63,52.37 C692.83,56.73 678.55,61.23 671.54,66.43 C668.1,68.98 664.79,71.82 661.59,74.56 C655.81,79.56 649.84,84.65 642.96,88.17 C629.26,95.17 613.07,95.46 597.42,95.72 C580.87,95.98 563.77,96.26 549.57,104.53 C528.57,116.78 526.2,142.42 524.14,165.04 C521.5,194.1 517.25,216.4 510.78,235.22 C509.282838,239.423704 507.422478,243.489058 505.22,247.37 C502.16,253.07 499.52,257.99 498.99,266.59 C498.62,272.47 500.66,280.68 502.62,288.59 C504.43,295.87 506.29,303.4 506.17,308.76 C505.69,331.18 491.89,344.7 478.55,357.76 C467.44,368.7 457,378.98 455,393.58 C453.52,404.52 459.51,415.99 465.31,427.08 C469.22,434.56 473.26,442.3 474.77,449.57 C477.92,464.79 467.71,482.76 460.25,495.89 C459.02,498.06 457.85,500.12 456.85,501.98 C449.78,515.15 448.32,556.4 451.43,585.2 C452.27,592.92 453.55,601.78 458.24,609.2 C465.43,620.62 480.16,627.5 497.64,627.62 C509.18,627.71 520.64,625.12 531.73,622.62 C535.13,621.85 538.65,621.06 542.11,620.36 C554.94,617.75 571.55,615.51 586.24,621.36 C602.88,627.96 613.93,643.93 620.79,655.36 C622.73,658.6 624.64,661.95 626.48,665.2 C632.7,676.14 639.14,687.45 648.19,696.54 C656.99,705.38 668.03,711.87 678.7,718.14 L681.92,720.04 C693.45,726.86 705.41,734.42 713.84,745.16 C719.125963,751.747324 722.483484,759.670381 723.54,768.05 L724.54,768.05 C723.491619,759.444296 720.055315,751.303858 714.62,744.55 C706.07,733.67 694,726.06 682.41,719.19 Z" id="Path"></path>
            <path d="M887.28,710.9 C868.58,695.8 843.57,686.3 810.84,681.9 C795.51,679.83 779.84,678.98 764.63,678.15 C752.7,677.51 740.37,676.84 728.31,675.58 C714.31,674.13 698.24,671.58 685.21,663.58 C674.12,656.76 665.74,646.41 657.64,636.4 C655.64,633.91 653.54,631.33 651.45,628.86 C646.68,623.21 642.38,621.02 638.31,622.16 C634.08,623.34 631.98,628.09 632.16,631.96 C632.35,636.07 634.4,639.83 636.22,643.15 C642.06,653.86 648.69,666 659.13,674.2 C666.03,679.6 674.29,683.07 682.28,686.42 C686.35,688.13 690.56,689.9 694.54,691.91 C721.37,705.37 749,739.46 757.64,768.06 L758.64,768.06 C750,739.16 722.11,704.62 695,690.95 C691,688.95 686.76,687.16 682.67,685.44 C674.75,682.11 666.55,678.67 659.76,673.35 C649.48,665.28 642.91,653.24 637.1,642.61 C635.34,639.39 633.34,635.73 633.17,631.86 C633.01,628.37 634.85,624.1 638.59,623.06 C642.33,622.02 646.2,624.13 650.69,629.44 C652.78,631.91 654.86,634.44 656.87,636.97 C665,647.06 673.45,657.46 684.68,664.38 C697.89,672.51 714.1,675.1 728.2,676.57 C740.29,677.82 752.64,678.49 764.58,679.14 C779.74,679.96 795.42,680.81 810.7,682.88 C843.25,687.27 868.1,696.69 886.65,711.68 C905.2,726.67 916.28,747.61 917.32,768.06 L918.32,768.06 C917.28,747.31 906,726.06 887.28,710.9 Z" id="Path"></path>
            <path d="M857.73,725.51 C841.35,715.35 820.6,709.27 794.29,706.92 C787.36,706.31 780.29,706.33 775.45,710.7 C769.45,716.08 770.3,725.7 774.16,732.48 C776.58,736.7 779.98,740.32 783.27,743.81 C785.2,745.87 787.2,748 788.97,750.22 C791.39,753.22 796.36,760.57 795.13,768.06 L796.13,768.06 C797.32,760.24 792.22,752.72 789.72,749.59 C787.93,747.34 785.91,745.2 783.97,743.13 C780.72,739.68 777.36,736.13 774.97,731.98 C771.31,725.58 770.51,716.47 776.06,711.44 C780.6,707.33 787.43,707.32 794.15,707.92 C820.29,710.25 840.9,716.28 857.15,726.36 C873.87,736.74 885.75,751.83 890.39,768.06 L891.39,768.06 C886.82,751.48 874.75,736.06 857.73,725.51 Z" id="Path"></path>
            <path d="M824.65,657.89 C811.91,657 798.73,657.82 785.99,658.61 C762.9,660.06 738.99,661.55 717.73,652.61 C698.46,644.54 683.73,628.94 669.55,613.86 C665.61,609.67 661.55,605.34 657.42,601.24 C640.31,584.19 614.04,565.1 586.08,570.93 C578.32,572.55 571.08,576.04 564.08,579.43 C558.387148,582.36828 552.46825,584.846192 546.38,586.84 C525.66,592.97 501.89,586.62 487.22,571.04 C472.55,555.46 468.05,531.78 476,512.06 C479,504.56 483.75,497.52 488.33,490.7 C495.68,479.76 503.28,468.45 503.63,455.28 C503.89,445.15 499.73,435.6 495.72,426.37 C492.26,418.43 488.72,410.22 487.92,401.65 C486.69,387.65 492.85,372.49 506.77,355.31 C509.37,352.11 512.12,348.91 514.77,345.81 C523.3,335.87 532.12,325.59 537.4,313.5 C543.93,298.5 544.32,277.14 529.76,265.5 C518.46,256.5 526.68,235.57 529.47,229.38 C532.171721,223.760017 535.259095,218.333723 538.71,213.14 C542.228017,207.854497 545.362713,202.323663 548.09,196.59 C551.16,189.73 553.09,182.36 554.88,175.23 C556.366964,168.848734 558.271055,162.571916 560.58,156.44 C567.99227,138.355079 582.011853,123.770566 599.79,115.65 C619.58,106.65 642.65,106.21 663.01,105.84 C671.280355,105.682781 679.264546,102.784555 685.71,97.6 C691.43,93.06 696.11,87.32 700.64,81.78 L702.35,79.68 C707.35,73.62 712.8,67.34 719.85,63.04 C723.265036,61.0731146 726.817602,59.3553171 730.48,57.9 C732.66,57.06 734.9,56.06 737.06,55.06 C742.58,52.36 787.14,29.7 789.51,0.11 L788.51,0.11 C786.27,23.57 756,44.63 736.62,54.11 C734.49,55.11 732.25,56.11 730.09,57.01 C726.383069,58.4864661 722.787127,60.2276243 719.33,62.22 C712.14,66.6 706.62,72.95 701.58,79.08 L699.86,81.18 C695.37,86.68 690.73,92.37 685.09,96.84 C678.812116,101.879725 671.039172,104.69346 662.99,104.84 C642.54,105.21 619.36,105.64 599.38,114.74 C581.366333,122.963135 567.160313,137.737682 559.65,156.06 C557.317618,162.259096 555.400054,168.606433 553.91,175.06 C552.09,182.15 550.21,189.48 547.18,196.26 C544.465588,201.950076 541.351111,207.440511 537.86,212.69 C534.386381,217.922309 531.27896,223.388697 528.56,229.05 C525.7,235.41 517.27,256.87 529.14,266.36 C542.66,277.17 543.07,298.1 536.48,313.18 C531.26,325.18 522.48,335.35 514.01,345.24 C511.34,348.34 508.59,351.55 506.01,354.76 C491.93,372.15 485.69,387.55 486.95,401.82 C487.72,410.55 491.33,418.82 494.82,426.82 C498.82,435.95 502.9,445.39 502.65,455.3 C502.31,468.18 495.13,478.87 487.52,490.19 C482.91,497.05 478.15,504.14 475.09,511.73 C467.01,531.79 471.6,555.91 486.52,571.73 C501.44,587.55 525.62,594.04 546.69,587.81 C552.89,585.97 558.81,583.11 564.54,580.34 C571.54,576.98 578.67,573.51 586.32,571.91 C613.84,566.17 639.81,585.09 656.74,601.91 C660.84,605.99 664.92,610.32 668.86,614.5 C683.14,629.66 697.86,645.34 717.37,653.5 C738.89,662.5 762.88,661.01 786.08,659.56 C798.79,658.77 811.94,657.95 824.61,658.84 C884.24,663.06 938,710.63 949,768.06 L950,768.06 C939,710.12 884.81,662.12 824.65,657.89 Z" id="Path"></path>
            <path d="M770.56,52.67 L770.27,52.87 C735.78,78.22 700.11,104.43 659.27,120.32 C649.86,123.99 641.04,128.53 640.27,136.92 C639.57,144.92 647.64,151.41 655.63,152.5 C656.892539,152.672841 658.165701,152.756382 659.44,152.75034 C664.93,152.75034 670.38,151.3 675.69,149.89 C676.8,149.6 677.91,149.3 679.02,149.02 C697.595035,144.331846 716.92763,143.457576 735.85,146.45 C738.65,146.89 741.51,147.45 744.27,147.96 C753.44,149.7 762.91,151.5 772.27,150.21 C783.41,148.69 794.78,142.68 806.07,132.33 C813.27,125.72 819.73,118.2 825.97,110.93 C831.842195,103.836354 838.091198,97.0632625 844.69,90.64 C854.23,81.64 873.54,67.06 895.62,69.88 C908.62,71.54 919.85,78.95 930.71,86.13 C938.56,91.31 946.71,96.67 955.54,99.98 C982.68,110.11 1016.77,99.42 1036.61,74.57 C1052.03,55.25 1059.13,28.57 1056.61,0.06 L1055.61,0.06 C1058.07,28.3 1051.05,54.81 1035.78,73.94 C1016.27,98.47 982.65,109.06 955.91,99.06 C947.15,95.79 939.08,90.46 931.28,85.31 C920.32,78.06 909,70.57 895.76,68.88 C873.28,66.06 853.7,80.82 844,89.91 C837.37992,96.3585313 831.107717,103.154809 825.21,110.27 C818.99,117.53 812.55,125.03 805.39,131.59 C794.26,141.8 783.07,147.73 772.13,149.22 C762.93,150.48 753.53,148.7 744.45,146.98 C741.68,146.45 738.81,145.91 736,145.46 C716.950051,142.455145 697.488862,143.33959 678.79,148.06 C677.67,148.34 676.56,148.64 675.44,148.94 C669,150.65 662.34,152.41 655.77,151.52 C648.24,150.52 640.62,144.42 641.28,137.02 C641.97,129.18 650.5,124.81 659.62,121.27 C700.62,105.27 736.32,79.07 770.86,53.69 L771.15,53.48 C785,43.27 815.28,21.06 816.35,0.06 L815.35,0.06 C814.29,20.53 784.31,42.56 770.56,52.67 Z" id="Path"></path>
            <path d="M818.28,53.58 C810.13,59.48 801.06,64.34 792.28,69.03 C783.5,73.72 774.15,78.74 765.87,84.78 C762,87.62 757.62,91.18 755,95.96 C752.18,101.11 752,106.96 754.64,111.13 C757.35,115.52 762.51,117.460091 767.7,117.460091 C770.25499,117.467614 772.78876,116.996136 775.17,116.07 C781.94,113.41 787.04,108.07 791.98,102.84 L792.51,102.28 C807.28,86.77 830.21,64.75 858.78,52.72 C886.69,40.96 917.02,40.72 939.9,52.18 C943.28,53.87 946.66,55.87 949.9,57.8 C958.38,62.8 967.15,68 977.1,68.47 C996.62,69.41 1011.91,51.09 1013.94,33.47 C1015.15,22.9 1012.94,11.73 1007.36,0.11 L1006.25,0.11 C1011.9,11.72 1014.15,22.85 1012.94,33.36 C1011.01,50.16 996.82,67.55 978.51,67.55 C978.06,67.55 977.6,67.55 977.15,67.55 C967.44,67.09 958.78,61.97 950.41,57.02 C947.12,55.08 943.73,53.02 940.31,51.37 C917.18,39.82 886.54,40.01 858.37,51.88 C829.62,63.98 806.59,86.1 791.76,101.67 L791.23,102.23 C786.36,107.35 781.33,112.64 774.78,115.23 C768.23,117.82 759.24,116.81 755.46,110.69 C753.06,106.78 753.2,101.36 755.85,96.52 C758.37,91.91 762.62,88.45 766.44,85.67 C774.67,79.67 783.85,74.75 792.73,70 C801.61,65.25 810.63,60.41 818.84,54.48 C832.84,44.37 847.31,19.74 849.18,0.14 L848.18,0.14 C846.37,19.35 832.06,43.62 818.28,53.58 Z" id="Path"></path>
            <path d="M1012,719.71 C1003.71,700.58 990.57,682.35 972.94,665.54 C956.75,650.11 940.75,639.65 924.01,633.54 C896.56,623.54 866.55,625.34 837.52,627.07 C825.05,627.81 812.16,628.57 799.63,628.4 C788.08,628.24 773.13,627.28 759.87,621.17 C742.95,613.38 728.73,599.48 716.38,578.68 C698.99,549.38 660.52,533.39 626.9,541.48 C617.66,543.7 608.81,547.54 600.26,551.26 C593.58794,554.274414 586.765643,556.944589 579.82,559.26 C560.77,565.26 543.05,563.26 532.4,553.95 C515.77,539.38 520.4,513.33 523.12,502.81 C524.44,497.74 526.12,492.62 527.69,487.66 C531.69,475.16 535.87,462.23 535.22,448.99 C534.81,440.79 532.54,432.68 530.35,424.83 C527.62,415.04 524.79,404.91 525.68,394.74 C527.06,379.04 536.44,366.39 546.38,353.01 C553.55,343.34 560.97,333.35 565.01,322.14 C569.83,308.77 569.63,294.3 569.43,280.31 C569.3,270.98 569.16,261.31 570.51,252.05 C574.89,221.83 595.89,194.05 625.31,179.6 C653.1,165.93 687.08,164.16 718.54,174.74 C723.06,176.27 727.67,178.07 732.14,179.81 C747.25,185.72 762.89,191.81 778.78,188.74 C800.78,184.48 815.46,163.97 827.23,147.5 C839.9,129.76 855.72,111.41 876.95,109.79 C892.19,108.63 905.42,116.05 919.43,123.9 C926.22,127.71 933.24,131.65 940.43,134.46 C957.53,141.12 977.17,141.68 997.22,136.09 C1016.15514,130.613104 1033.57054,120.839401 1048.11,107.53 C1072.11,85.53 1107.38,39.24 1121.95,0 L1120.89,0 C1106.33,39 1071.3,85 1047.44,106.79 C1015.63,135.88 973.77,146.37 940.79,133.53 C933.65,130.74 926.66,126.82 919.89,123.03 C906.37,115.45 892.39,107.61 876.89,108.8 C855.25,110.44 839.24,128.99 826.43,146.92 C814.77,163.25 800.25,183.57 778.61,187.76 C763,190.76 747.5,184.76 732.52,178.88 C728.05,177.13 723.42,175.33 718.88,173.8 C687.18,163.13 652.88,164.91 624.88,178.7 C595.17,193.32 573.96,221.37 569.53,251.9 C568.17,261.26 568.31,270.9 568.44,280.33 C568.64,294.23 568.84,308.6 564.08,321.8 C560.08,332.87 552.72,342.8 545.59,352.41 C536,365.32 526.1,378.67 524.7,394.65 C523.79,405 526.64,415.22 529.4,425.1 C531.58,432.89 533.82,440.95 534.23,449.04 C534.88,462.1 530.74,474.94 526.75,487.36 C525.15,492.36 523.49,497.46 522.16,502.56 C519.37,513.26 514.71,539.77 531.76,554.71 C542.67,564.27 560.76,566.33 580.13,560.21 C587.109972,557.877671 593.96273,555.180628 600.66,552.13 C609.18,548.44 617.99,544.62 627.15,542.41 C660.35,534.41 698.35,550.21 715.53,579.15 C727.99,600.15 742.36,614.15 759.46,622.04 C772.89,628.22 787.98,629.2 799.62,629.36 C812.18,629.53 825.1,628.77 837.62,628.03 C866.54,626.31 896.46,624.53 923.71,634.44 C940.32,640.44 956.2,650.87 972.29,666.21 C989.82,682.92 1002.89,701.04 1011.12,720.05 C1017.82429,735.161841 1021.26586,751.517814 1021.22,768.05 L1022.22,768.05 C1022.24353,751.397998 1018.76136,734.927548 1012,719.71 Z" id="Path"></path>
            <path d="M1009.81,618.54 C978.17,586.07 938.81,567.93 901.68,568.75 C885.96,569.1 870.4,572.75 855.36,576.28 C848.36,577.92 841.1,579.62 833.94,580.97 C805.58,586.28 783.81,583.97 767.4,573.97 C756.77,567.48 748.65,557.71 740.79,548.26 C736.79,543.44 732.66,538.47 728.22,533.95 C700.54,505.78 657.61,493.62 618.84,502.95 C608.48,505.45 593.26,503.61 582.48,501.06 C570.77,498.29 561.69,490.5 559.34,481.21 C557.63,474.45 559.28,467.73 561.03,460.63 C562.19,455.89 563.4,450.99 563.5,446.11 C563.63,439.64 561.83,433.29 560.09,427.16 C558.42,421.3 556.71,415.25 556.7,409.16 C556.7,392.11 569.46,377.91 582.55,364.82 C595.22,352.15 610.99,336.39 630.83,331.27 C648.77,326.64 666.57,330.93 685.4,335.47 C698.03,338.47 711.08,341.66 724.05,341.8 C740.35,341.93 756.72,337.4 772.55,332.99 C795.33,326.65 816.85,320.66 838.31,327.41 C851.58,331.59 862.77,340.36 873.59,348.84 C879.09,353.16 884.79,357.62 890.71,361.46 C912.38,375.46 939.8,383.03 972.23,383.89 C993.62,384.46 1011.59,381.96 1027.23,376.24 C1037.53,372.47 1047.12,366.84 1056.4,361.4 C1063.70478,356.93253 1071.24949,352.869741 1079,349.23 C1102.68,338.67 1114,346.53 1124.88,354.14 C1129.55,357.39 1134.38,360.76 1140.06,362.52 C1145.21,364.13 1150.36,365.94 1155.33,367.68 C1170.65,373.06 1185.11,378.15 1201.22,378.34 C1210.42,378.46 1221.45,380.4 1233.13,382.46 C1248.72,385.21 1265.69,388.2 1279.99,386.81 L1279.99,385.81 C1265.81,387.21 1248.86,384.22 1233.31,381.48 C1221.58,379.41 1210.51,377.48 1201.23,377.34 C1185.29,377.15 1170.9,372.09 1155.67,366.74 C1150.67,364.99 1145.52,363.18 1140.35,361.57 C1134.82,359.85 1130.27,356.68 1125.45,353.32 C1114.3,345.56 1102.78,337.53 1078.59,348.32 C1070.79242,351.974786 1063.20103,356.054238 1055.85,360.54 C1046.61,365.96 1037.06,371.54 1026.85,375.3 C1011.37,380.97 993.51,383.46 972.26,382.89 C940.02,382.04 912.76,374.55 891.26,360.62 C885.37,356.81 879.69,352.36 874.26,348.06 C863.37,339.52 852.11,330.69 838.66,326.46 C816.92,319.61 794.249994,325.93 772.34,332.03 C756.57,336.42 740.22,340.93 724.11,340.8 C711.249994,340.66 698.26,337.53 685.69,334.5 C667.56,330.13 648.81,325.61 630.63,330.3 C610.52,335.48 594.63,351.36 581.89,364.12 C568.66,377.35 555.74,391.73 555.749994,409.12 C555.749994,415.35 557.49,421.47 559.17,427.39 C560.85,433.31 562.68,439.73 562.55,446.05 C562.45,450.82 561.26,455.66 560.11,460.35 C558.41,467.26 556.65,474.41 558.42,481.41 C560.86,491.06 570.23,499.14 582.3,501.99 C587.59,503.24 605.87,507.07 619.12,503.88 C657.56,494.62 700.12,506.68 727.55,534.6 C731.96,539.09 736.09,544.05 740.07,548.85 C747.98,558.36 756.16,568.19 766.93,574.78 C783.56,584.94 805.56,587.27 834.17,581.91 C841.36,580.56 848.62,578.91 855.63,577.22 C870.63,573.7 886.14,570.06 901.749994,569.71 C938.55,568.87 977.7,586.92 1009.15,619.19 C1037.52,648.31 1056.94,684.42 1075.72,719.34 L1101.85,768.06 L1103,768.06 L1076.57,718.91 C1057.74,683.93 1038.29,647.75 1009.81,618.54 Z" id="Path"></path>
            <path d="M1188.74,710.06 C1173.82,699.6 1155.96,693.56 1138.68,687.72 L1137.53,687.33 C1111.9,678.66 1088.95,659.46 1065.3,626.92 C1059.51,618.92 1053.92,610.61 1048.5,602.55 C1036.42,584.55 1023.92,565.96 1008.5,550.17 C982.5,523.62 951.19,510.09 922.5,513.04 C904.24,514.92 887.43,523.24 871.17,531.28 C867.98,532.85 864.69,534.48 861.45,536.03 C843.82,544.45 820.76,553.4 798.72,547.86 C779.49,543.02 764.91,528.22 750.8,513.86 C735.8,498.67 720.36,482.97 699.36,479.32 C685.43,476.89 671.3,480.32 657.64,483.61 C654.21,484.44 650.64,485.3 647.18,486.04 C624.88,490.83 608.08,488.51 597.26,479.13 C584.81,468.34 582.66,450.41 581.53,432.97 C580.27,413.42 579.95,396.07 588.87,381.78 C602.82,359.45 634.46,354.61 659.42,357.53 C668.9,358.63 678.47,360.53 687.73,362.45 C704.18,365.77 721.19,369.22 738.2,368.09 C751.66,367.21 765.28,363.49 778.46,359.9 C801.65,353.58 823.56,347.6 844.89,355.55 C859.12,360.85 870.16,371.74 880.89,382.27 C887.68,388.96 894.7,395.88 902.54,401.43 C936.18,425.19 981.86,421.98 1013.28,417.49 C1020.51,416.49 1027.88,415.26 1035,414.11 C1065.24,409.2 1096.5,404.11 1126.7,409.95 C1140.7,412.64 1155.31,410.45 1169.45,408.33 C1185.21,405.97 1201.51,403.53 1216.67,408 C1225.36,410.57 1234.88,415 1244.96,419.64 C1256.72,425.08 1268.8,430.64 1280.05,433.45 L1280.05,432.45 C1268.96,429.67 1257.05,424.15 1245.38,418.76 C1235.27,414.08 1225.71,409.66 1216.96,407.07 C1201.58,402.54 1185.17,405 1169.3,407.38 C1155.24,409.48 1140.71,411.66 1126.88,408.99 C1096.51,403.14 1065.16,408.23 1034.88,413.15 C1027.76,414.31 1020.4,415.5 1013.18,416.53 C981.93,420.99 936.51,424.2 903.18,400.64 C895.4,395.15 888.41,388.25 881.65,381.59 C870.78,371.06 859.66,360.06 845.23,354.67 C823.6,346.62 800.51,352.91 778.23,359 C765.1,362.57 751.52,366.27 738.16,367.16 C721.29,368.27 704.34,364.84 687.96,361.53 C678.68,359.65 669.08,357.71 659.56,356.59 C634.3,353.65 602.25,358.59 588.06,381.31 C578.97,395.85 579.29,413.37 580.56,433.09 C581.71,450.74 583.89,468.9 596.63,479.94 C607.7,489.54 624.79,491.94 647.42,487.08 C650.91,486.33 654.42,485.47 657.9,484.64 C671.47,481.36 685.49,477.97 699.22,480.36 C719.9,483.96 735.22,499.55 750.12,514.62 C764.32,529.04 779.01,543.94 798.51,548.85 C820.86,554.47 844.13,545.44 861.91,536.95 C865.16,535.4 868.45,533.77 871.64,532.2 C887.82,524.2 904.55,515.92 922.64,514.05 C951,511.14 982.04,524.56 1007.8,550.89 C1023.2,566.61 1035.66,585.17 1047.72,603.12 C1053.14,611.19 1058.72,619.54 1064.55,627.52 C1088.32,660.25 1111.42,679.52 1137.26,688.3 L1138.41,688.68 C1155.62,694.5 1173.41,700.52 1188.22,710.89 C1207.35359,724.369243 1220.27347,744.966831 1224.08,768.06 L1225.08,768.06 C1221.26019,744.626059 1208.16088,723.719061 1188.74,710.06 L1188.74,710.06 Z" id="Path"></path>
            <path d="M854.69,392.89 C840.8,383.48 821.3,380.06 798.28,383.06 C788.4,384.34 778.52,386.57 768.97,388.73 C759.9,390.78 750.52,392.9 741.16,394.19 C712.16,398.19 685.51,392.35 657.32,386.19 L657.13,386.19 C645.44,383.62 617.3,380.59 608.75,407.99 C605.142917,419.796963 608.002052,432.630797 616.28,441.79 C629.99,456.58 653.47,456.91 669.93,455.87 L675.45,455.5 C692.78,454.29 710.71,453.05 725.66,461.09 C734.59,465.89 741.52,473.62 748.23,481.09 C749.88,482.93 751.59,484.84 753.3,486.67 C765,499.06 775.7,506.36 787.09,509.51 C790.720124,510.525385 794.470566,511.046747 798.24,511.06 C809.11,511.06 819.31,506.81 825.17,499.3 C828.05,495.6 829.9,491.25 831.69,487.04 C833.026303,483.639011 834.641818,480.354464 836.52,477.22 C840.6,470.81 846.84,465.91 852.88,461.16 C859.44,456.01 866.23,450.68 870.31,443.38 C880.29,425.48 870,403.25 854.69,392.89 Z M869.44,442.89 C865.44,450.02 858.75,455.28 852.26,460.38 C846.16,465.17 839.84,470.13 835.67,476.69 C833.768404,479.885056 832.129674,483.229402 830.77,486.69 C829.01,490.84 827.18,495.13 824.38,498.69 C816.78,508.44 801.55,512.51 787.38,508.59 C776.18,505.5 765.59,498.31 754.06,485.98 C752.36,484.15 750.65,482.25 749,480.41 C742.24,472.86 735.25,465.06 726.16,460.17 C716.46,454.96 705.6,453.58 694.47,453.58 C688.15,453.58 681.74,454.03 675.41,454.47 L669.9,454.84 C653.64,455.84 630.47,455.56 617.05,441.08 C609.004944,432.190014 606.228389,419.724003 609.74,408.26 C618.04,381.65 645.52,384.62 656.95,387.14 L657.13,387.14 C685.42,393.36 712.13,399.23 741.32,395.19 C750.73,393.89 760.13,391.77 769.23,389.71 C778.75,387.56 788.6,385.33 798.44,384.06 C821.21,381.11 840.44,384.46 854.15,393.73 C869,403.83 879.14,425.49 869.44,442.85 L869.44,442.89 Z" id="Shape"></path>
            <path d="M819.31,396.88 C808.77,395.38 798.16,397.93 787.9,400.39 C786.05,400.83 784.22,401.27 782.38,401.69 C758.983377,407.018511 734.879917,408.534686 711,406.18 L709.68,406.05 C702.6,405.33 695.27,404.6 688.85,407.58 C684.99,409.37 680.6,414.65 680.2,419.65 C679.900482,422.347803 681.160947,424.981204 683.45,426.44 C686.63,428.58 692.73,428.56 698.66,428.57 C701.859578,428.444184 705.063882,428.621643 708.23,429.1 C725.169519,432.689205 740.355076,442.005368 751.23,455.48 C753.05,457.79 754.77,460.24 756.42,462.62 C759.040689,466.594252 761.966156,470.358911 765.17,473.88 C771,479.97 777.93,483.36 784.44,483.36 C784.98,483.36 785.52,483.36 786.06,483.29 C794.21,482.56 800.61,476.61 804.54,471.74 C806.54,469.27 808.35,466.6 810.1,464.03 C814.468056,456.914427 820.148884,450.694022 826.84,445.7 C829.13,443.8 831.5,441.84 833.69,439.76 C840.23,433.53 843.69,427.17 843.88,420.87 C844.37,408.29 831.5,398.62 819.31,396.88 Z M842.92,420.83 C842.71,426.83 839.38,432.99 833.04,439.03 C830.88,441.1 828.52,443.03 826.24,444.93 C822.88507,447.566758 819.723622,450.440802 816.78,453.53 C814.059798,456.66039 811.563613,459.978611 809.31,463.46 C807.57,466.02 805.77,468.67 803.8,471.11 C799.99,475.83 793.8,481.6 786.01,482.29 C779.35,482.89 772.01,479.56 765.93,473.19 C762.76424,469.708382 759.872295,465.987302 757.28,462.06 C755.62,459.67 753.9,457.2 752.06,454.87 C741.031563,441.210922 725.634483,431.76785 708.46,428.13 C705.451656,427.652216 702.403989,427.468017 699.36,427.58 L698.67,427.58 C693.17,427.58 686.94,427.58 684.02,425.58 C682.023299,424.329894 680.928438,422.038868 681.21,419.7 C681.57,415.11 685.76,410.09 689.28,408.45 C695.46,405.59 702.64,406.31 709.59,407.01 L710.91,407.14 C734.893069,409.510627 759.101622,407.99105 782.6,402.64 C784.44,402.22 786.283333,401.783333 788.13,401.33 C798.3,398.89 808.82,396.33 819.13,397.84 C830.93,399.55 843.35,408.81 842.92,420.83 Z" id="Shape"></path>
            <path d="M1195.15,663.28 C1187.58,660.28 1179.97,656.83 1172.62,653.48 C1157.17,646.48 1141.19,639.15 1124.36,635.8 C1101.49,631.26 1080.78,613.69 1062.78,583.59 C1059.01,577.28 1055.41,570.7 1051.92,564.32 C1042.26,546.64 1032.26,528.32 1017.57,514.02 C995.03,492.02 963.94,481.39 933.88,471.14 C927.81,469.07 921.53,466.93 915.46,464.74 C910.36,462.9 905.46,460.97 901.8,457.6 C898.39,454.48 895.67,449.13 897.3,444.21 C898.93,439.29 904.52,436.4 909.3,435.84 C914.3,435.25 919.44,436.44 924.38,437.59 L925.07,437.75 C989.478585,452.638209 1056.60174,451.042331 1120.23,433.11 C1141.38,427.11 1165.73,421.46 1186.93,429.89 C1204.63,436.89 1219.79,449.14 1234.44,460.95 C1237.27,463.23 1240.09,465.51 1242.93,467.75 C1253.87,476.37 1266.28,485.25 1279.99,491.09 L1279.99,490 C1266.53,484.2 1254.32,475.46 1243.55,467 C1240.71,464.77 1237.89,462.49 1235.07,460.22 C1220.36,448.36 1205.14,436.1 1187.3,429.01 C1165.81,420.46 1141.3,426.17 1119.96,432.19 C1056.49448,450.074129 989.544024,451.66655 925.3,436.82 L924.61,436.66 C919.61,435.49 914.38,434.29 909.18,434.89 C904.45,435.44 898.25,438.14 896.34,443.89 C894.79,448.58 896.66,454.25 901.11,458.33 C904.93,461.82 909.91,463.79 915.11,465.67 C921.19,467.86 927.47,470.01 933.55,472.08 C963.55,482.29 994.48,492.85 1016.87,514.72 C1031.44,528.96 1041.4,547.17 1051.04,564.79 C1054.53,571.17 1058.13,577.79 1061.91,584.09 C1080.06,614.45 1101,632.17 1124.15,636.77 C1140.87,640.1 1156.8,647.36 1172.15,654.38 C1179.51,657.73 1187.15,661.2 1194.72,664.2 C1237.32,680.97 1267.85,723.26 1270.24,768.05 L1271.24,768.05 C1268.91,722.87 1238.12,680.2 1195.15,663.28 Z" id="Path"></path>
            <path d="M1240.17,70.56 C1238.68,72.41 1237.17,74.3 1235.71,76.2 C1226.1,88.47 1216.16,101.2 1201.77,107.08 C1180.21,115.97 1156.2,108.8 1143.77,103.74 C1125.77,96.4 1102.86,99.12 1080.77,111.2 C1067.4,118.53 1055.43,128.31 1043.85,137.77 C1038.96,141.77 1033.85,145.9 1028.85,149.77 C1015.23,160.17 994.37,174.17 970.62,175.62 C957.41,176.43 944.22,173.31 931.47,170.31 C923.89,168.52 916.04,166.67 908.23,165.64 C882.451159,162.264866 856.284385,167.6158 833.9,180.84 C828.15,184.26 822.55,188.27 817.13,192.15 C805.13,200.71 792.79,209.57 778.23,212.35 C763.67,215.13 749.06,211.57 734.79,208.15 C729.68,206.93 724.39,205.66 719.19,204.7 C693.8,200 668.55,202.76 648.07,212.45 C625.07,223.33 608.15,243.11 602.77,265.37 C599.61,278.46 602.61,294.1 614.46,298.68 C620.05,300.84 626.12,299.95 631.99,299.08 C634.967404,298.580648 637.973399,298.270029 640.99,298.15 C649.6,297.98 657.85,301.15 665.84,304.22 C669.41,305.58 673.09,307 676.77,308.11 C708.58,317.69 742.24,306.11 771.94,295.88 C803.4,285.05 836.6,275.37 866.49,286 C881.49,291.35 894.57,301.59 907.19,311.49 C923,323.89 939.35,336.72 959.48,339.58 C978.42,342.26 997.29,335.52 1013.26,328.58 C1016.26,327.26 1019.26,325.9 1022.26,324.58 C1035.87,318.45 1049.95,312.1 1064.87,309.82 C1085.27,306.71 1104.72,312.99 1114.41,325.82 C1130.06,346.58 1156.13,359.02 1189.8,361.82 C1194.69,362.22 1199.71,362.42 1204.8,362.42 C1228.71,362.42 1254.8,358.09 1279.95,349.89 L1279.95,348.84 C1249.49,358.84 1217.5,363.09 1189.85,360.84 C1156.47,358.1 1130.65,345.84 1115.18,325.26 C1105.27,312.12 1085.45,305.68 1064.69,308.85 C1049.63,311.16 1035.49,317.53 1021.82,323.69 C1018.82,325.05 1015.82,326.41 1012.82,327.69 C996.98,334.59 978.27,341.28 959.58,338.63 C939.71,335.81 923.47,323.06 907.76,310.74 C895.08,300.79 881.97,290.51 866.76,285.1 C836.58,274.36 803.18,284.1 771.56,294.98 C742,305.14 708.54,316.67 677,307.18 C673.35,306.08 669.69,304.67 666.14,303.31 C658.06,300.21 649.69,297.02 640.92,297.18 C637.869695,297.298537 634.830128,297.612514 631.82,298.12 C625.82,299.01 620.14,299.84 614.82,297.78 C603.51,293.41 600.68,278.3 603.74,265.64 C609.05,243.64 625.74,224.13 648.5,213.38 C668.79,203.78 693.83,201.06 719.01,205.71 C724.18,206.71 729.46,207.93 734.56,209.15 C748.93,212.6 763.8,216.15 778.42,213.37 C793.2,210.54 805.66,201.62 817.71,192.99 C823.11,189.13 828.71,185.13 834.41,181.73 C856.601051,168.618079 882.542974,163.312817 908.1,166.66 C915.86,167.66 923.68,169.53 931.24,171.31 C944.06,174.31 957.32,177.46 970.68,176.65 C994.68,175.18 1015.68,161.08 1029.46,150.59 C1034.56,146.69 1039.63,142.59 1044.53,138.59 C1056.07,129.15 1068,119.4 1081.29,112.12 C1103.09,100.18 1125.73,97.48 1143.41,104.7 C1155.94,109.82 1180.24,117.07 1202.13,108.05 C1216.76,102.05 1226.78,89.23 1236.48,76.86 C1237.96,74.96 1239.44333,73.08 1240.93,71.22 C1254.21,54.66 1267.04,45.76 1279.93,44.09 L1279.93,43.06 C1266.75,44.7 1253.67,53.73 1240.17,70.56 Z" id="Path"></path>
            <path d="M1261.8,114.85 C1250.73,128.61 1240.27,141.61 1224.34,147.61 C1210.84,152.7 1195.8,149.5 1181.26,146.41 C1172.55,144.56 1163.54,142.65 1154.84,142.47 C1111.08,141.62 1072.37,142.64 1041.61,164.02 C1036.75,167.4 1032.17,171.29 1027.73,175.02 C1021.73,180.13 1015.49,185.41 1008.54,189.42 C983.11,204.11 951.17,200.83 920.64,196.21 C892.64,191.97 857.89,186.71 830.9,202.77 C825.64093,206.069633 820.62781,209.745922 815.9,213.77 C811.094627,217.861568 805.990437,221.588596 800.63,224.92 C786.04,233.46 767.31,236.7 741.7,235.13 C735.49,234.74 729.19,234.13 723.09,233.56 C709.2,232.23 694.84,230.85 680.71,232 C667.13,233.09 657.83,237.6 653.81,245 C650.47,251.19 650.99,259.43 655.17,266.51 C665.35,283.73 688.84,286.39 710.47,286.72 C733.79,287.08 757.91,287.45 781,281.67 C791.14,279.14 801.07,275.4 810.66,271.78 C816.96,269.41 823.47,266.96 829.98,264.87 C849.98,258.44 866.61,257.1 880.68,260.78 C891.9,263.72 901.95,269.96 911.68,275.99 C917.89585,280.058111 924.347141,283.754581 931,287.06 C963.71,302.3 1002.61,297.34 1039.78,289.7 L1046.93,288.22 C1080.7,281.22 1115.63,273.95 1148.74,282.71 L1150.48,283.17 C1162.81,286.43 1175.56,289.79 1185.08,297.57 C1188.95,300.73 1192.66,304.22 1196.26,307.57 C1201.99,312.95 1207.92,318.57 1214.65,322.92 C1222.76,328.22 1236.59,331.12 1251,331.12 C1260.83275,331.211285 1270.61878,329.756879 1280,326.81 L1280,325.68 C1258.75,332.74 1228.49,330.76 1215.23,322.09 C1208.57,317.74 1202.67,312.2 1196.97,306.84 C1193.37,303.45 1189.64,299.95 1185.74,296.76 C1176.05,288.85 1163.2,285.46 1150.74,282.18 L1149,281.72 C1115.67,272.89 1080.62,280.17 1046.74,287.21 L1039.59,288.69 C1002.59,296.29 963.88,301.24 931.43,286.13 C924.801764,282.870175 918.370693,279.223898 912.17,275.21 C902.39,269.14 892.27,262.86 880.92,259.89 C866.65,256.15 849.92,257.49 829.65,263.99 C823.12,266.08 816.65,268.54 810.29,270.92 C800.72,274.52 790.82,278.25 780.74,280.77 C757.74,286.51 733.74,286.15 710.47,285.77 C689.13,285.48 666,282.88 656,266.06 C652,259.28 651.48,251.42 654.66,245.54 C659.52,236.54 671.54,233.76 680.76,233.01 C694.76,231.88 709.12,233.25 722.96,234.57 C729.07,235.16 735.39,235.76 741.6,236.14 C767.43,237.73 786.33,234.45 801.1,225.8 C806.510329,222.448374 811.65845,218.690914 816.5,214.56 C821.192306,210.568627 826.165086,206.919248 831.38,203.64 C858.06,187.76 892.66,193 920.46,197.21 C951.17,201.86 983.3,205.15 1009.01,190.3 C1016.01,186.24 1022.3,180.93 1028.35,175.79 C1032.77,172.04 1037.35,168.17 1042.16,164.79 C1072.66,143.59 1111.16,142.57 1154.79,143.42 C1163.39,143.59 1172.35,145.5 1181.02,147.34 C1195.7,150.46 1210.89,153.69 1224.66,148.5 C1240.85,142.4 1251.88,128.69 1262.55,115.42 C1268.02,108.62 1273.63,101.65 1279.97,95.62 L1279.97,94.31 C1273.33,100.53 1267.49,107.77 1261.8,114.85 Z" id="Path"></path>
            <path d="M1204.1,183.51 C1189.6,185.62 1169.95,183.51 1155.6,181.9 C1116.04,177.57 1078.06,175.26 1048.12,194.25 C1043.00726,197.637055 1038.08947,201.309544 1033.39,205.25 C1025.76,211.39 1017.86,217.75 1008.61,221.37 C995.38,226.54 980.61,225.75 966.3,224.98 L963.35,224.82 C950.72,224.17 943.07,226.82 939.97,232.99 C936.04,240.77 942.22,250.22 949.97,255.15 C963.11,263.45 979.44,264.75 995.05,265.36 C1059.18039,267.884573 1123.38845,263.029376 1186.41,250.89 C1193.28,249.56 1199.32,250.63 1203.41,253.89 C1206.38676,256.473952 1209.06963,259.378156 1211.41,262.55 C1212.71,264.18 1214.06,265.86 1215.49,267.44 C1225.33,278.29 1240.31,284.1 1255.17,284.09 C1263.78569,284.164431 1272.2856,282.103014 1279.91,278.09 L1279.91,276.95 C1259.79,288.12 1231.61,283.75 1216.23,266.79 C1214.82,265.23 1213.48,263.56 1212.23,261.94 C1209.83234,258.707912 1207.08204,255.753018 1204.03,253.13 C1199.71,249.67 1193.39,248.54 1186.22,249.92 C1123.27194,262.053051 1059.13669,266.901614 995.08,264.37 C979.62,263.76 963.44,262.48 950.51,254.31 C943.07,249.62 937.15,240.71 940.81,233.45 C943.72,227.69 951.05,225.2 963.25,225.83 L966.25,225.99 C980.65,226.76 995.54,227.56 1008.97,222.31 C1018.37,218.64 1026.32,212.23 1033.97,206.04 C1038.65339,202.107396 1043.55448,198.441595 1048.65,195.06 C1078.32,176.24 1116.12,178.54 1155.5,182.85 C1169.9,184.43 1189.62,186.58 1204.25,184.46 C1217.25,182.57 1228.56,176.06 1239.54,169.76 C1251.96,162.64 1264.75,155.31 1280,154.65 L1280,153.65 C1264.5,154.31 1251.58,161.71 1239,168.91 C1228.15,175.19 1216.88,181.65 1204.1,183.51 Z" id="Path"></path>
            <path d="M1138.92,79.06 C1145.92,83.87 1155.31,86.46 1165.92,86.53 L1166.41,86.53 C1191.69,86.53 1217.41,72.95 1236.97,49.2 C1249.19,34.39 1257.97,17.43 1265.62,0.11 L1264.53,0.11 C1256.97,17.22 1248.25,33.96 1236.2,48.57 C1216.97,71.88 1190.71,85.74 1165.93,85.57 C1155.52,85.5 1146.38,82.97 1139.49,78.27 C1126.3,69.27 1119.9,51.16 1123.18,32.11 C1125.12,20.81 1129.98,10.11 1135.52,0.11 L1134.38,0.11 C1128.9,10.02 1124.12,20.65 1122.19,31.9 C1118.84,51.28 1125.41,69.79 1138.92,79.06 Z" id="Path"></path>
            <path d="M1206.38,470.44 C1174.53,452.98 1139.6,450.11 1112.92,462.79 C1099.07,469.37 1086.03,482.88 1088.14,498.2 C1089.92,511.2 1101.2,519.36 1112.14,527.27 C1121.61,534.14 1131.41,541.27 1135.42,551.55 C1138.42,559.16 1137.76,567.62 1137.15,575.8 C1136.54,583.98 1135.94,592.25 1138.72,599.93 C1141.96,608.87 1149.99,616.79 1161.34,622.24 C1168.14,625.51 1175.5,627.73 1182.61,629.88 C1185.72,630.82 1188.94,631.8 1192.06,632.88 C1226.82,644.52 1260.85,676.61 1280.06,703.82 L1280.06,702.06 C1260.64,674.97 1226.89,643.44 1192.41,631.89 C1189.27,630.84 1186.05,629.89 1182.93,628.89 C1175.85,626.75 1168.54,624.53 1161.8,621.3 C1150.69,615.97 1142.8,608.24 1139.69,599.55 C1136.99,592.07 1137.59,583.82 1138.18,575.83 C1138.79,567.54 1139.42,558.97 1136.38,551.15 C1132.27,540.56 1122.38,533.37 1112.75,526.42 C1101.52,518.28 1090.92,510.59 1089.19,498.03 C1087.19,483.2 1099.88,470.08 1113.41,463.65 C1139.8,451.12 1174.41,453.97 1205.96,471.27 C1231.56,485.27 1258.91,513.66 1280.06,536.27 L1280.06,534.86 C1258.91,512.32 1231.82,484.39 1206.38,470.44 Z" id="Path"></path>
            <path d="M1221,518.15 C1204.89,508.41 1189.31,506.81 1179.32,513.88 C1171.17,519.65 1167.03,531.06 1167.97,545.18 C1169.68,570.97 1184.32,596.83 1208.14,616.18 C1226.32,630.91 1249.26,642.08 1280.04,651.18 L1280.04,650.18 C1249.53,641.18 1226.79,630.07 1208.77,615.46 C1185.17,596.34 1170.66,570.74 1168.97,545.22 C1168.53,538.71 1168.73,522.71 1179.89,514.81 C1194.2,504.68 1214.58,515.54 1220.49,519.11 C1237.57,529.44 1266.81,568.85 1280.04,590.11 L1280.04,588.06 C1266.33,566.48 1237.81,528.32 1221,518.15 Z" id="Path"></path>
        </g>
    </g>
</svg>